<html>
<head>
<meta charset="UTF-8">
<meta name="viewport" content="width=device-width, initial-scale=1.0"/>

<style>
.comment
{
    padding-left: 20px;
    margin-top: 4px;
    margin-right: 4px;
    margin-bottom: 4px;
    border: 2px #000 solid;
}
.submission
{
    border: 4px #00f solid;
    padding-left: 20px;
}
.hidden
{
    display: none;
}
</style>
</head>
<body><div class="submission" id="t3_68j8u7">
    <p class="userinfo">
        <a href="https://www.reddit.com/u/jodorowsthesky">jodorowsthesky</a>
        <span class="score"> | 25 points</span>
        <span class="timestamp"> | May 01 2017 01:36:04</span>
    </p>
    <strong>[MOVIE] Lars and the Real Girl (2007) [1080p][x264][2GB]</strong>
    <p><p>.nz/#!ZK5lWJBR!AB-d1bNOPb42D-9l3emh1BwfxwjeUCaccFxLiAZUOV8  </p>
<pre><code>Format                                   : MPEG-4
Format profile                           : Base Media
Codec ID                                 : isom (isom/iso2/avc1/mp41)
File size                                : 2.04 GiB
Duration                                 : 1 h 46 min
Overall bit rate                         : 2 732 kb/s
Movie name                               : Lars.and.the.Real.Girl.2007.1080p.BluRay.H264.AAC-RARBG
Encoded date                             : UTC 2016-02-26 06:10:22
Tagged date                              : UTC 2016-02-26 06:10:22
Writing application                      : Lavf56.40.101
Comment                                  : Lars.and.the.Real.Girl.2007.1080p.BluRay.H264.AAC-RARBG

Video
ID                                       : 1
Format                                   : AVC
Format/Info                              : Advanced Video Codec
Format profile                           : High@L4.1
Format settings, CABAC                   : Yes
Format settings, ReFrames                : 4 frames
Codec ID                                 : avc1
Codec ID/Info                            : Advanced Video Coding
Duration                                 : 1 h 46 min
Bit rate                                 : 2 500 kb/s
Width                                    : 1 920 pixels
Height                                   : 1 038 pixels
Display aspect ratio                     : 1.85:1
Frame rate mode                          : Constant
Frame rate                               : 23.976 (23976/1000) FPS
Color space                              : YUV
Chroma subsampling                       : 4:2:0
Bit depth                                : 8 bits
Scan type                                : Progressive
Bits/(Pixel*Frame)                       : 0.052
Stream size                              : 1.86 GiB (92%)
Writing library                          : x264 core 148 r2638M 7599210
Encoding settings                        : cabac=1 / ref=4 / deblock=1:-1:-1 / analyse=0x3:0x113 / me=umh / subme=9 / psy=1 / psy_rd=1.00:0.15 / mixed_ref=1 / me_range=24 / chroma_me=1 / trellis=2 / 8x8dct=1 / cqm=0 / deadzone=21,11 / fast_pskip=1 / chroma_qp_offset=-3 / threads=32 / lookahead_threads=4 / sliced_threads=0 / nr=0 / decimate=1 / interlaced=0 / bluray_compat=0 / constrained_intra=0 / bframes=3 / b_pyramid=2 / b_adapt=2 / b_bias=0 / direct=3 / weightb=1 / open_gop=0 / weightp=2 / keyint=250 / keyint_min=25 / scenecut=40 / intra_refresh=0 / rc_lookahead=50 / rc=2pass / mbtree=1 / bitrate=2500 / ratetol=1.0 / qcomp=0.60 / qpmin=0 / qpmax=69 / qpstep=4 / cplxblur=20.0 / qblur=0.5 / vbv_maxrate=31250 / vbv_bufsize=31250 / nal_hrd=none / filler=0 / ip_ratio=1.40 / aq=3:1.00
Encoded date                             : UTC 2016-02-26 06:10:22
Tagged date                              : UTC 2016-02-26 06:10:22

Audio
ID                                       : 2
Format                                   : AAC
Format/Info                              : Advanced Audio Codec
Format profile                           : LC
Codec ID                                 : 40
Duration                                 : 1 h 46 min
Bit rate mode                            : Constant
Bit rate                                 : 224 kb/s
Channel(s)                               : 2 channels
Channel(s)_Original                      : 6 channels
Channel positions                        : Front: L C R, Side: L R, LFE
Sampling rate                            : 48.0 kHz
Frame rate                               : 46.875 FPS (1024 spf)
Compression mode                         : Lossy
Stream size                              : 171 MiB (8%)
Language                                 : English
Default                                  : Yes
Alternate group                          : 1
Encoded date                             : UTC 2016-02-26 06:10:22
Tagged date                              : UTC 2016-02-26 06:10:22
</code></pre></p>
    <p class="toolbar">
        <a href="https://www.reddit.com/r/megalinks/comments/68j8u7">permalink</a>
    </p>
</div>
<div class="comment" id="t1_dgyw55z">
    <p class="userinfo">
        <a
        class="toggle_hide_button"
        href="javascript:void(0)"
        onclick="toggle_collapse(this.parentElement.parentElement)">[-]
        </a>
        <a href="https://www.reddit.com/u/boltrop">boltrop</a>
        <span class="score"> | 3 points</span>
        <span class="timestamp"> | May 01 2017 01:38:08</span>
    </p>
    <div class="collapsible">
        <h3><a href="https://images-na.ssl-images-amazon.com/images/M/MV5BMTI4NDc1NDkwMV5BMl5BanBnXkFtZTcwNjgzMDE1MQ@@._V1_.jpg">Lars and the Real Girl</a> (2007)</h3>
<p><strong>Genre</strong>: Comedy, Drama, Romance</p>
<p><strong>Rating</strong>:  7.4 (120092 votes)</p>
<p><strong>Certification</strong>: PG-13</p>
<p><strong>Runtime</strong>: 106 min</p>
<hr>
<blockquote>
<p><strong>Director(s)</strong>: <a href="https://www.imdb.com/name/nm0318916/">Craig Gillespie</a></p>
<p><strong>Writer(s)</strong>: <a href="https://www.imdb.com/name/nm1280672/">Nancy Oliver</a></p>
<p><strong>Cast</strong>: <a href="https://www.imdb.com/name/nm0331516/">Ryan Gosling</a>, <a href="https://www.imdb.com/name/nm0607865/">Emily Mortimer</a>, <a href="https://www.imdb.com/name/nm0773973/">Paul Schneider</a>, <a href="https://www.imdb.com/name/nm0717395/">R.D. Reid</a></p>
<p><strong>Plot</strong>: A delusional young man strikes up an unconventional relationship with a doll he finds on the Internet.</p>
</blockquote>
<hr>
<p>^This ^summary ^is ^taken ^from <a href="https://www.imdb.com/title/tt0805564/">^imdb.com</a> ^| ^For ^feedback ^or ^suggestions ^contact <a href="http://www.reddit.com/message/compose/?to=indigo6alpha">^/u/indigo6alpha</a></p>
        <p class="toolbar">
            <a href="https://www.reddit.com/r/megalinks/comments/68j8u7/_/dgyw55z">permalink</a>
        </p>
        
    </div>
</div>

<div class="comment" id="t1_dgyznp4">
    <p class="userinfo">
        <a
        class="toggle_hide_button"
        href="javascript:void(0)"
        onclick="toggle_collapse(this.parentElement.parentElement)">[-]
        </a>
        <a href="https://www.reddit.com/u/SubZorro">SubZorro</a>
        <span class="score"> | 2 points</span>
        <span class="timestamp"> | May 01 2017 02:59:11</span>
    </p>
    <div class="collapsible">
        <h5>Subtitles for this movie:</h5>
<hr>
<blockquote>
<ul>
<li>
<p><strong>Lars.and.the.Real.Girl.2007.720p.BluRay.x264.YIFY.mp4</strong> - <code>1 CD</code> - <a href="http://dl.opensubtitles.org/en/download/vrf-d393f756/sub/5107208">Download Subtitle</a></p>
</li>
<li>
<p><strong>Lars.and.the.Real.Girl.2007.720p.BluRay.x264.YIFY</strong> - <code>1 CD</code> - <a href="http://dl.opensubtitles.org/en/download/vrf-3b448e47/sub/6033869">Download Subtitle</a></p>
</li>
<li>
<p><strong>Lars.and.the.Real.Girl.2007.BluRay.720p.x264.DTS-MySiLU</strong> - <code>1 CD</code> - <a href="http://dl.opensubtitles.org/en/download/vrf-7aed8f28/sub/4159834">Download Subtitle</a></p>
</li>
</ul>
</blockquote>
<hr>
<p>^This ^list ^of ^subtitles ^are ^taken ^from <a href="http://www.opensubtitles.org">^opensubtitles.org</a> ^| ^For ^feedback ^or ^suggestions ^contact <a href="http://www.reddit.com/message/compose/?to=indigo6alpha">^/u/indigo6alpha</a></p>
        <p class="toolbar">
            <a href="https://www.reddit.com/r/megalinks/comments/68j8u7/_/dgyznp4">permalink</a>
        </p>
        
    </div>
</div>
</body>

<script>
function toggle_collapse(comment_div)
{
    var button = comment_div.getElementsByClassName("toggle_hide_button")[0];
    var collapsible = comment_div.getElementsByClassName("collapsible")[0];
    if (collapsible.classList.contains("hidden"))
    {
        collapsible.classList.remove("hidden");
        button.innerText = "[-]";
    }
    else
    {
        collapsible.classList.add("hidden");
        button.innerText = "[+]";
    }
}
</script>
</html>
